<?xml version="1.0" encoding="utf-8"?>
<!-- Generator: Adobe Illustrator 16.0.0, SVG Export Plug-In . SVG Version: 6.00 Build 0)  -->
<!DOCTYPE svg PUBLIC "-//W3C//DTD SVG 1.1//EN" "http://www.w3.org/Graphics/SVG/1.1/DTD/svg11.dtd">
<svg version="1.1" id="Layer_1" xmlns="http://www.w3.org/2000/svg" xmlns:xlink="http://www.w3.org/1999/xlink" x="0px" y="0px"
	 width="104px" height="25px" viewBox="0 0 104 25" enable-background="new 0 0 104 25" xml:space="preserve">
<path fill="#FFF100" d="M103.899,20.118c-0.13-0.26-0.381-0.489-0.75-0.685c-0.37-0.196-0.756-0.341-1.158-0.433
	c-0.402-0.093-0.799-0.159-1.188-0.2c0.1-0.306,0.193-0.665,0.282-1.075c0.088-0.409,0.169-0.795,0.24-1.157
	c0.085-0.425,0.168-0.857,0.25-1.297c0.13-0.659,0.256-1.245,0.379-1.75c0.124-0.507,0.23-0.936,0.318-1.287
	c0.103-0.41,0.194-0.753,0.274-1.026c0.023-0.08,0.054-0.165,0.09-0.254c0.036-0.09,0.065-0.183,0.084-0.277l0.093-0.335
	c0.034-0.157,0.056-0.331,0.069-0.525c0.01-0.191-0.005-0.375-0.047-0.551c-0.044-0.176-0.119-0.33-0.226-0.464
	c-0.107-0.134-0.269-0.236-0.491-0.305c-0.222-0.069-0.414-0.06-0.574,0.028c-0.161,0.088-0.307,0.207-0.438,0.358
	c-0.131,0.151-0.239,0.31-0.32,0.477c-0.084,0.166-0.143,0.297-0.177,0.395c-0.139,0.327-0.25,0.642-0.336,0.945
	c-0.086,0.303-0.164,0.613-0.231,0.928c-0.022,0.095-0.072,0.287-0.155,0.573c-0.082,0.289-0.185,0.625-0.309,1.011
	c-0.125,0.386-0.264,0.794-0.422,1.223c-0.156,0.429-0.322,0.826-0.495,1.188c-0.173,0.365-0.355,0.675-0.546,0.937
	c-0.192,0.26-0.378,0.413-0.555,0.458c-0.197,0.034-0.338-0.004-0.422-0.112c-0.086-0.106-0.14-0.234-0.163-0.382
	c-0.025-0.164-0.028-0.354-0.008-0.571c0.023-0.321,0.078-0.663,0.164-1.019c0.089-0.358,0.184-0.711,0.287-1.063
	c0.103-0.352,0.212-0.682,0.325-0.989c0.114-0.308,0.209-0.576,0.286-0.802c0.023-0.079,0.054-0.164,0.09-0.254
	c0.036-0.089,0.065-0.181,0.085-0.277l0.093-0.334c0.033-0.159,0.058-0.33,0.07-0.515c0.013-0.184-0.003-0.363-0.046-0.54
	c-0.043-0.175-0.118-0.335-0.226-0.476c-0.108-0.142-0.273-0.247-0.494-0.316c-0.222-0.069-0.417-0.057-0.583,0.04
	c-0.166,0.096-0.314,0.225-0.443,0.385c-0.129,0.158-0.238,0.32-0.328,0.487c-0.091,0.168-0.154,0.298-0.187,0.396
	c-0.35,0.833-0.616,1.585-0.803,2.255c-0.07,0.253-0.122,0.485-0.173,0.716c-0.258,0.755-0.738,2.082-1.138,2.778
	c-0.2,0.348-0.683,0.419-0.617-0.17c0.003-0.017,0.003-0.032,0.007-0.049c0.037-0.204,0.076-0.401,0.117-0.589
	c0.037-0.143,0.093-0.335,0.165-0.578c0.073-0.237,0.139-0.47,0.201-0.693c0.08-0.271,0.165-0.544,0.257-0.819
	c0.219-0.72,0.42-1.378,0.611-1.972c0.188-0.596,0.31-1.097,0.36-1.51c0.054-0.411,0.012-0.713-0.124-0.904
	c-0.134-0.189-0.43-0.231-0.886-0.126c-0.164,0.043-0.307,0.144-0.429,0.302c-0.123,0.157-0.25,0.347-0.386,0.566
	c-0.043-0.053-0.091-0.1-0.143-0.136c-0.053-0.038-0.106-0.073-0.158-0.109c-0.169-0.093-0.345-0.159-0.53-0.195
	c-0.185-0.038-0.361-0.056-0.527-0.051c-0.166,0.007-0.319,0.025-0.458,0.055c-0.138,0.031-0.235,0.051-0.291,0.061
	c-0.443,0.104-0.833,0.272-1.17,0.504c-0.338,0.231-0.615,0.464-0.834,0.697c-0.267,0.288-0.484,0.584-0.659,0.885
	c-0.175,0.29-0.353,0.623-0.53,1.002c-0.138,0.298-0.249,0.625-0.357,0.954l-0.005-0.039c0,0-0.751,2.342-1.327,3.344
	c-0.201,0.349-0.63,0.608-0.613-0.17c0.021-0.193,0.037-0.382,0.069-0.591c0.159-1.013,0.375-1.972,0.647-2.882
	c0.271-0.909,0.564-1.749,0.876-2.521c0.311-0.771,0.622-1.458,0.935-2.055c0.313-0.598,0.603-1.085,0.875-1.464
	c0.037-0.038,0.072-0.086,0.105-0.147c0.032-0.063,0.069-0.112,0.105-0.149c0.049-0.056,0.092-0.103,0.13-0.141
	c0.091-0.14,0.167-0.277,0.225-0.409c0.057-0.131,0.092-0.246,0.103-0.347c0.024-0.119,0.032-0.229,0.03-0.327
	c-0.002-0.265-0.069-0.477-0.198-0.637c-0.132-0.16-0.279-0.289-0.443-0.387c-0.179-0.113-0.391-0.189-0.632-0.229
	c-0.531-0.107-1.024,0.13-1.479,0.709c-0.071,0.093-0.136,0.182-0.194,0.271c-0.058,0.089-0.116,0.178-0.172,0.268
	c-0.057,0.09-0.114,0.186-0.168,0.292c-0.28,0.496-0.53,1.029-0.751,1.6c-0.224,0.573-0.414,1.107-0.576,1.605
	c-0.19,0.585-0.358,1.169-0.506,1.748c-0.081,0.291-0.167,0.627-0.262,1.01c-0.094,0.383-0.183,0.791-0.268,1.223
	c-0.035,0.178-0.067,0.368-0.102,0.55c-0.271,0.505-0.771,1.271-1.525,1.916c0.066-0.161,0.123-0.313,0.164-0.452
	c0.117-0.299,0.215-0.59,0.29-0.875c0.074-0.285,0.148-0.565,0.225-0.845c0.066-0.324,0.119-0.625,0.156-0.898
	c0.038-0.272,0.061-0.519,0.069-0.739c0.021-0.236,0.027-0.465,0.021-0.682c-0.031-0.434-0.152-0.814-0.364-1.138
	c-0.211-0.322-0.532-0.554-0.96-0.696c-0.199-0.064-0.382-0.094-0.554-0.094c-0.17,0.001-0.327,0.016-0.468,0.046
	c-0.144,0.032-0.265,0.074-0.361,0.127c-0.102,0.053-0.172,0.089-0.216,0.108c-0.227,0.125-0.441,0.283-0.639,0.472
	c-0.201,0.188-0.371,0.373-0.509,0.555c-0.166,0.203-0.321,0.429-0.464,0.678c-0.049,0.072-0.095,0.145-0.135,0.217
	c-0.042,0.071-0.093,0.151-0.157,0.244c0.083-0.245,0.189-0.475,0.322-0.691c0.148-0.386,0.161-0.748,0.031-1.088
	c-0.13-0.338-0.377-0.533-0.742-0.581c-0.156-0.001-0.309,0.037-0.459,0.11c-0.149,0.077-0.284,0.169-0.405,0.283
	c-0.12,0.112-0.228,0.232-0.32,0.361c-0.095,0.127-0.173,0.236-0.235,0.325c-0.059,0.11-0.108,0.206-0.146,0.293
	c-0.039,0.09-0.076,0.168-0.11,0.239c-0.05,0.072-0.083,0.144-0.103,0.214c-0.162,0.402-0.313,0.832-0.451,1.282
	c-0.138,0.452-0.266,0.898-0.382,1.34c-0.119,0.439-0.218,0.858-0.305,1.254c-0.086,0.396-0.157,0.74-0.215,1.033
	c-0.146,0.67-0.276,1.348-0.389,2.033c-0.098,0.6-0.176,1.241-0.233,1.929c-0.058,0.688-0.071,1.341-0.04,1.962
	c-0.008,0.135-0.01,0.259-0.004,0.379c0.006,0.115,0.017,0.232,0.037,0.349c0.008,0.134,0.031,0.257,0.066,0.372
	c0.082,0.379,0.202,0.708,0.36,0.986c0.157,0.277,0.374,0.495,0.649,0.652c0.241,0.128,0.465,0.213,0.675,0.26
	c0.176,0.032,0.357,0.027,0.543-0.018c0.187-0.044,0.345-0.184,0.475-0.416c0.035-0.07,0.073-0.166,0.113-0.288
	c0.074-0.194,0.086-0.489,0.031-0.886l-0.035-0.201c-0.011-0.066-0.023-0.132-0.035-0.197c-0.011-0.065-0.016-0.141-0.016-0.227
	c-0.049-0.365-0.084-0.811-0.106-1.339c-0.021-0.528-0.023-1.105,0-1.728c0.022-0.626,0.069-1.286,0.141-1.984
	c0.073-0.698,0.176-1.415,0.31-2.153c0.261-0.733,0.558-1.453,0.892-2.159C78.79,12.61,79.16,12,79.567,11.487
	c0.102-0.128,0.226-0.267,0.37-0.417c0.119-0.113,0.257-0.235,0.413-0.371c0.155-0.132,0.333-0.251,0.531-0.356
	c-0.042,1.182-0.185,2.239-0.433,3.175c-0.249,0.934-0.462,1.637-0.643,2.108c-0.15,0.388-0.315,0.732-0.495,1.036
	c-0.155,0.27-0.326,0.513-0.511,0.735c-0.187,0.221-0.38,0.341-0.578,0.362c-0.095-0.008-0.174-0.008-0.233-0.002
	c-0.059,0.023-0.116,0.053-0.171,0.092c-0.053,0.042-0.089,0.104-0.106,0.19c-0.025,0.119-0.017,0.275,0.024,0.463
	c0.04,0.189,0.157,0.342,0.348,0.457c0.139,0.088,0.288,0.139,0.447,0.157c0.157,0.018,0.306,0.019,0.443,0.005
	c0.166-0.017,0.333-0.052,0.495-0.101c0.177-0.05,0.351-0.128,0.522-0.226l-0.003,0.004c0,0,2.836-1.414,3.747-3.617
	c-0.029,0.221-0.067,0.446-0.085,0.665c-0.023,0.368-0.027,0.724-0.011,1.072c0.028,0.563,0.158,1.17,0.58,1.577
	c0.181,0.173,0.49,0.274,0.729,0.317c0.16,0.029,0.325,0.017,0.479-0.023l0.015,0.01c0,0,0.042-0.012,0.109-0.042
	c0.006-0.002,0.013-0.002,0.019-0.004c0.008-0.003,0.015-0.011,0.023-0.015c0.3-0.147,0.993-0.623,1.529-2.009
	c0.029,0.217,0.067,0.435,0.135,0.658c0.122,0.437,0.35,0.816,0.685,1.14c0.336,0.322,0.788,0.451,1.356,0.387
	c0.48-0.066,0.88-0.231,1.204-0.498c0.32-0.268,0.582-0.556,0.781-0.872c0.2-0.315,0.347-0.625,0.438-0.929
	c0.093-0.303,0.151-0.527,0.175-0.669c-0.097,0.611-0.099,1.081-0.002,1.415c0.071,0.244,0.168,0.524,0.354,0.708
	c0.168,0.167,0.436,0.261,0.666,0.281c0.187,0.017,0.34-0.016,0.505-0.074l0.004,0.002c0,0,0.858-0.211,1.492-2.116
	c0.051,0.346,0.125,0.649,0.226,0.897c0.026,0.04,0.082,0.138,0.171,0.291c0.089,0.153,0.218,0.306,0.388,0.459
	c0.169,0.155,0.385,0.29,0.647,0.406c0.261,0.116,0.586,0.155,0.972,0.122c0.243-0.025,0.474-0.087,0.699-0.186
	c0.181-0.091,0.371-0.229,0.567-0.416c0.194-0.184,0.351-0.453,0.468-0.809c-0.055,0.314-0.116,0.632-0.183,0.956
	c-0.065,0.322-0.137,0.657-0.211,1.004c-0.739,0.139-1.442,0.356-2.106,0.65c-0.666,0.295-1.261,0.631-1.789,1.006
	c-0.528,0.377-0.958,0.777-1.294,1.198c-0.334,0.42-0.526,0.827-0.576,1.215c-0.074,0.468-0.02,0.836,0.162,1.102
	c0.183,0.267,0.399,0.462,0.649,0.587c0.299,0.147,0.644,0.242,1.035,0.284c0.687,0.006,1.304-0.109,1.853-0.347
	c0.546-0.237,1.039-0.548,1.476-0.941c0.437-0.391,0.82-0.849,1.152-1.37c0.332-0.518,0.625-1.06,0.882-1.618
	c0.256,0.032,0.488,0.066,0.693,0.1c0.205,0.034,0.385,0.068,0.54,0.104c0.168,0.031,0.324,0.075,0.469,0.125
	c0.328,0.144,0.628,0.239,0.902,0.283c0.242,0.035,0.478,0.034,0.709-0.003c0.231-0.04,0.399-0.175,0.504-0.405
	C104.034,20.624,104.029,20.377,103.899,20.118z M92.175,12.295c-0.151,0.451-0.288,0.876-0.409,1.276
	c-0.12,0.401-0.221,0.748-0.301,1.043c-0.081,0.294-0.13,0.489-0.152,0.585c-0.062,0.222-0.146,0.474-0.25,0.758
	c-0.105,0.285-0.228,0.557-0.369,0.815c-0.141,0.259-0.298,0.48-0.472,0.661c-0.175,0.183-0.37,0.282-0.583,0.305
	c-0.18-0.016-0.317-0.131-0.414-0.343c-0.075-0.186-0.104-0.469-0.089-0.852c0.016-0.382,0.132-0.957,0.352-1.725
	c0.448-1.504,0.923-2.58,1.429-3.227c0.504-0.646,0.972-0.955,1.406-0.918c0.045,0.006,0.092,0.02,0.141,0.043
	c0.107,0.073,0.173,0.168,0.202,0.285C92.49,11.414,92.328,11.843,92.175,12.295z M96.57,22.784
	c-0.557,0.586-1.227,0.923-2.009,1.01c-0.097,0.015-0.194,0.008-0.288-0.021c-0.198-0.028-0.325-0.104-0.386-0.232
	c-0.011-0.043,0.018-0.136,0.085-0.278c0.066-0.14,0.182-0.303,0.339-0.489c0.159-0.188,0.35-0.386,0.575-0.599
	c0.226-0.212,0.488-0.419,0.789-0.623c0.213-0.143,0.443-0.272,0.691-0.39c0.221-0.113,0.466-0.215,0.736-0.305
	c0.27-0.09,0.562-0.155,0.873-0.192C97.595,21.491,97.126,22.194,96.57,22.784z"/>
<path fill="#FFFFFF" d="M59.473,9.407v1.55l-2.686,1.549v7.308l-2.314,1.337l-2.315-1.337v-1.55l-2.686,1.55l-2.314,1.337
	l-2.315-1.337v-7.308l-1.819,1.05v6.258l-2.315,1.337l-2.313-1.337v-1.55l-2.687,1.55l-2.314,1.337l-2.314-1.337v-1.55l-2.687,1.55
	l-2.315,1.337l-2.314-1.337v-1.55l-2.686,1.55l-2.315,1.337l-2.315-1.337V6.73l-2.253,1.301v11.783l-2.314,1.337l-2.313-1.337V6.73
	L7.316,8.031v11.783L5,21.151l-2.314-1.337V6.73L0,8.281V6.733l2.686-1.551L5,3.846l2.315,1.335v1.302l2.252-1.301V5.182
	l2.313-1.335l2.314,1.335v1.302l2.253-1.301V5.182l2.315-1.335l2.315,1.335v13.085l2.686-1.551v-5.758l2.314-1.335l2.315,1.335v7.31
	l2.687-1.551v-5.749l-1.327,0.766v-1.549l1.327-0.766V5.182l2.314-1.335l2.314,1.335v1.564l1.327-0.767v1.549l-1.327,0.766v9.973
	l2.687-1.551V5.182l2.313-1.335l2.315,1.335v6.827l1.819-1.051l2.315-1.335l2.314,1.335v7.31l2.686-1.551v-5.758l2.315-1.335
	l2.314,1.335L59.473,9.407z M28.398,7.858V5.184l-2.317-1.337l-2.316,1.337v2.675l2.316,1.337L28.398,7.858z M64.104,7.858V5.184
	l-2.316-1.337L59.47,5.184v2.675l2.317,1.337L64.104,7.858z M71.418,18.267V5.182l-2.316-1.335l-2.314,1.335v11.534l-2.685,1.551
	v-7.31l-2.315-1.335l-2.314,1.335v8.857l2.314,1.337l2.315-1.337l2.685-1.55v1.55l2.314,1.337l2.316-1.337l2.21-1.276
	c0.012-0.078,0.022-0.162,0.033-0.239c0.084-0.502,0.189-0.996,0.286-1.493L71.418,18.267z"/>
</svg>
